<svg width="41" height="38" viewBox="0 0 41 38" fill="none" xmlns="http://www.w3.org/2000/svg">
<path d="M5.58469 9.87387C6.62609 9.17638 8.20314 9.29179 9.14646 10.0106L8.06064 8.55113C7.18696 7.39888 7.48958 6.13936 8.72152 5.31133C9.95348 4.48644 13.472 6.63362 13.472 6.63362C12.5905 5.46995 12.7448 3.98201 13.9879 3.14655C15.2309 2.31423 16.9546 2.57968 17.8362 3.74543L29.5217 19.0108L28.1273 32.4828L15.7729 28.3856L4.92739 13.5161C4.03802 12.3452 4.3328 10.7147 5.58469 9.87387Z" fill="#EF9645"/>
<path d="M3.22788 18.4578C3.22788 18.4578 1.95807 16.7462 3.78732 15.5451C5.61436 14.3441 6.88305 16.0546 6.88305 16.0546L12.7734 23.9983C12.9728 23.6805 13.1911 23.3668 13.435 23.057L5.25973 12.0336C5.25973 12.0336 3.99103 10.3231 5.81918 9.12198C7.64621 7.92092 8.91491 9.63143 8.91491 9.63143L16.6045 20.0014C16.8868 19.781 17.1758 19.5596 17.4737 19.3422L8.55916 7.31883C8.55916 7.31883 7.29046 5.60831 9.1186 4.40724C10.9456 3.20618 12.2143 4.91669 12.2143 4.91669L21.1289 16.938C21.4525 16.7476 21.773 16.5822 22.0946 16.4075L13.7622 5.17142C13.7622 5.17142 12.4935 3.46091 14.3205 2.25985C16.1476 1.05879 17.4163 2.7693 17.4163 2.7693L26.2265 14.6506L27.5659 16.4576C22.0837 20.0618 21.6008 26.7407 24.772 31.0175C25.4058 31.8733 26.3199 31.2733 26.3199 31.2733C22.5138 26.1397 23.6304 20.3155 29.1137 16.7123L27.4438 9.09712C27.4438 9.09712 26.8252 7.09244 28.9608 6.49967C31.0975 5.90792 31.7172 7.91259 31.7172 7.91259L33.6238 13.1233C34.3796 15.1893 35.1832 17.2475 36.242 19.1911C39.2315 24.6792 37.5083 31.5559 31.9574 35.2058C25.9024 39.185 17.5829 37.8149 13.3786 32.1471L3.22788 18.4578Z" fill="#E8EC3E"/>
<path d="M13.6746 33.6944C9.21927 33.7538 4.69706 29.6027 4.67719 25.4354C4.67444 24.8593 4.22112 24.3996 3.60517 24.4078C2.98922 24.416 2.44677 24.889 2.44952 25.4651C2.47933 31.7161 7.00153 35.8671 13.6845 35.7781C14.3005 35.7698 14.796 35.2538 14.7932 34.6776C14.7905 34.1015 14.2906 33.6862 13.6746 33.6944Z" fill="#5DADEC"/>
<path d="M8.08731 35.8085C4.7458 35.8531 2.50819 33.7991 2.49329 30.6736C2.49054 30.0975 1.99043 29.6384 1.37448 29.6466C0.758532 29.6548 0.262868 30.1272 0.265616 30.7033C0.285489 34.8706 3.6419 37.9516 8.09724 37.8922C8.71319 37.884 9.20886 37.4116 9.20611 36.8355C9.20336 36.2594 8.70326 35.8003 8.08731 35.8085ZM26.8635 2.21747C26.2487 2.22567 25.7519 2.69906 25.7547 3.27415C25.7574 3.84924 26.2586 4.30933 26.8735 4.30114C31.3288 4.24174 35.802 7.92148 35.8239 12.517C35.8266 13.0921 36.3279 13.5522 36.9427 13.544C37.5575 13.5358 38.0543 13.0624 38.0516 12.4873C38.0242 6.74264 33.5465 2.12838 26.8635 2.21747Z" fill="#5DADEC"/>
<path d="M32.3792 0.10333C31.7643 0.111527 31.2674 0.541163 31.2701 1.11625C31.2729 1.69135 31.7743 2.19519 32.3891 2.18699C35.7306 2.14245 37.9226 4.43145 37.9362 7.27878C37.9389 7.85387 38.4858 8.31335 39.1017 8.30514C39.7177 8.29693 40.1666 7.82417 40.1638 7.24908C40.1448 3.25157 36.8345 0.0439348 32.3792 0.10333Z" fill="#5DADEC"/>
</svg>
